<?xml version="1.0" encoding="UTF-8" standalone="no"?><!DOCTYPE svg PUBLIC "-//W3C//DTD SVG 1.1//EN" "http://www.w3.org/Graphics/SVG/1.1/DTD/svg11.dtd"><svg width="100%" height="100%" viewBox="0 0 100 100" version="1.1" xmlns="http://www.w3.org/2000/svg" xmlns:xlink="http://www.w3.org/1999/xlink" xml:space="preserve" xmlns:serif="http://www.serif.com/" style="fill-rule:evenodd;clip-rule:evenodd;stroke-linejoin:round;stroke-miterlimit:2;"><path d="M29.55,21.246l5.996,-0.854l-1.829,-12.846l-6,0.85l1.833,12.85Zm-9.212,14.354l0.854,-6l-12.85,-1.833l-0.854,6.004l12.85,1.829Zm-2.059,-21.513l-4.291,4.292l9.179,9.184l4.287,-4.292l-9.175,-9.184Zm52.254,64.855l-5.995,0.854l1.825,12.846l6.004,-0.85l-1.834,-12.85Zm9.209,-14.359l-0.859,6.004l12.855,1.83l0.854,-6l-12.85,-1.834Zm2.062,21.513l4.284,-4.288l-9.184,-9.183l-4.279,4.292l9.179,9.179Zm11,-78.767c9.767,9.775 9.767,25.621 0.004,35.392l-16.233,16.233l-5.904,-5.904l16.229,-16.229c6.508,-6.509 6.508,-17.088 0,-23.592c-6.508,-6.508 -17.088,-6.508 -23.592,0l-16.225,16.229l-5.9,-5.9l16.229,-16.229c9.767,-9.771 25.613,-9.771 35.392,0Zm-33.908,69.296l-16.05,16.046c-9.767,9.779 -25.609,9.771 -35.392,0.004c-9.767,-9.775 -9.771,-25.621 0,-35.392l16.058,-16.046l5.892,5.896l-16.046,16.046c-6.508,6.508 -6.508,17.092 -0.004,23.596c6.513,6.504 17.092,6.504 23.6,-0.004l16.042,-16.046l5.9,5.9Z" style="fill:#6366f1;fill-rule:nonzero;"/></svg>